<?xml version="1.0" encoding="UTF-8" standalone="no"?>
<!-- Created with Inkscape (http://www.inkscape.org/) -->

<svg
   xmlns:dc="http://purl.org/dc/elements/1.1/"
   xmlns:cc="http://creativecommons.org/ns#"
   xmlns:rdf="http://www.w3.org/1999/02/22-rdf-syntax-ns#"
   xmlns:svg="http://www.w3.org/2000/svg"
   xmlns="http://www.w3.org/2000/svg"
   xmlns:xlink="http://www.w3.org/1999/xlink"
   xmlns:sodipodi="http://sodipodi.sourceforge.net/DTD/sodipodi-0.dtd"
   xmlns:inkscape="http://www.inkscape.org/namespaces/inkscape"
   width="300"
   height="300"
   id="svg4529"
   version="1.1"
   inkscape:version="0.48.3.1 r9886"
   sodipodi:docname="Larry_the_Lobster.svg">
  <defs
     id="defs4531">
    <linearGradient
       inkscape:collect="always"
       id="linearGradient5108">
      <stop
         style="stop-color:#a84a48;stop-opacity:1;"
         offset="0"
         id="stop5110" />
      <stop
         style="stop-color:#a84a48;stop-opacity:0;"
         offset="1"
         id="stop5112" />
    </linearGradient>
    <linearGradient
       inkscape:collect="always"
       xlink:href="#linearGradient5108"
       id="linearGradient5114"
       x1="381.4335"
       y1="440.64304"
       x2="386.43051"
       y2="438.76791"
       gradientUnits="userSpaceOnUse" />
  </defs>
  <sodipodi:namedview
     id="base"
     pagecolor="#ffffff"
     bordercolor="#666666"
     borderopacity="1.0"
     inkscape:pageopacity="0.0"
     inkscape:pageshadow="2"
     inkscape:zoom="1"
     inkscape:cx="84.952408"
     inkscape:cy="195.56584"
     inkscape:document-units="px"
     inkscape:current-layer="layer7"
     showgrid="false"
     inkscape:window-width="1152"
     inkscape:window-height="672"
     inkscape:window-x="0"
     inkscape:window-y="0"
     inkscape:window-maximized="0"
     fit-margin-top="0"
     fit-margin-left="0"
     fit-margin-right="0"
     fit-margin-bottom="0" />
  <metadata
     id="metadata4534">
    <rdf:RDF>
      <cc:Work
         rdf:about="">
        <dc:format>image/svg+xml</dc:format>
        <dc:type
           rdf:resource="http://purl.org/dc/dcmitype/StillImage" />
        <dc:title />
      </cc:Work>
    </rdf:RDF>
  </metadata>
  <g
     inkscape:groupmode="layer"
     id="layer8"
     inkscape:label="BG"
     style="display:inline"
     transform="translate(-195.71428,-293.79074)" />
  <g
     inkscape:groupmode="layer"
     id="layer4"
     inkscape:label="DarkRed"
     transform="translate(-195.71428,-293.79074)">
    <path
       style="fill:#b50300;fill-opacity:1;stroke:#000000;stroke-width:2;stroke-linecap:butt;stroke-linejoin:miter;stroke-miterlimit:4;stroke-opacity:1;stroke-dasharray:none"
       d="m 320.31938,471.69038 c 0,0 4.95595,-12.55507 13.05066,-17.51102 8.09472,-4.95594 12.55507,-12.05947 26.92732,-12.22467 14.37224,-0.1652 50.38546,-19.32819 86.72907,-11.89427 36.34361,7.43392 36.67401,9.91189 45.09912,21.64097 8.42511,11.72907 14.20705,19.49339 14.20705,19.49339 0,0 -9.4163,47.90749 -17.34582,62.77533 -7.92951,14.86784 -19.49339,43.11674 -19.82378,53.19383 -0.3304,10.0771 0,12.38987 0,12.38987 l -29.73569,3.79956 z"
       id="path5076"
       inkscape:connector-curvature="0"
       sodipodi:nodetypes="csssscssccc" />
  </g>
  <g
     inkscape:groupmode="layer"
     id="layer2"
     inkscape:label="Antennae"
     transform="translate(-195.71428,-293.79074)">
    <path
       style="fill:#c12d1f;fill-opacity:1;stroke:#000000;stroke-width:1px;stroke-linecap:butt;stroke-linejoin:miter;stroke-opacity:1"
       d="m 392.55417,393.3718 c 0,0 0.72205,-18.29192 -2.16615,-25.99378 -2.8882,-7.70186 -4.3323,-13.95962 -16.60713,-26.95651 -12.27484,-12.99689 -19.01397,-18.05123 -19.01397,-18.05123 0,0 15.40372,8.66459 28.40061,23.58694 12.99689,14.92236 12.51552,29.36335 12.51552,36.34316 0,6.97981 0.24068,13.47825 0.24068,13.47825 z"
       id="path3780"
       inkscape:connector-curvature="0" />
    <path
       style="fill:#c12d1f;fill-opacity:1;stroke:#000000;stroke-width:1px;stroke-linecap:butt;stroke-linejoin:miter;stroke-opacity:1"
       d="m 371.13337,397.7041 c 0,0 -7.46118,-20.45807 -12.51552,-27.43788 -5.05435,-6.97981 -17.0885,-14.2003 -24.309,-15.6444 -7.22049,-1.4441 -18.05123,-4.57298 -18.05123,-4.57298 0,0 19.25465,4.81366 24.309,9.38664 5.05434,4.57298 15.88508,12.03416 21.18011,25.51241 5.29503,13.47825 7.22049,16.60714 7.22049,16.60714 z"
       id="path3782"
       inkscape:connector-curvature="0" />
    <path
       style="fill:#b50300;fill-opacity:1;stroke:#000000;stroke-width:1px;stroke-linecap:butt;stroke-linejoin:miter;stroke-opacity:1"
       d="m 397.8492,409.25689 c 0,0 -0.48137,-0.48137 0.24068,-7.70186 0.72205,-7.2205 0.24068,-9.38665 -3.85093,-9.62733 -4.09161,-0.24068 -5.29503,4.3323 -4.81366,10.10869 0.48136,5.7764 0.48136,10.10869 0.48136,10.10869 z"
       id="path3784"
       inkscape:connector-curvature="0" />
    <path
       style="fill:#b50300;fill-opacity:1;stroke:#000000;stroke-width:1px;stroke-linecap:butt;stroke-linejoin:miter;stroke-opacity:1"
       d="m 370.65201,409.25689 c 0,0 -5.7764,-9.86801 -1.4441,-12.75621 4.33229,-2.8882 10.34937,9.38664 10.34937,9.38664 z"
       id="path3786"
       inkscape:connector-curvature="0" />
  </g>
  <g
     inkscape:groupmode="layer"
     id="layer5"
     inkscape:label="Red"
     transform="translate(-195.71428,-293.79074)">
    <path
       style="fill:#c12d1f;fill-opacity:1;stroke:#000000"
       d="m 460.73789,595.58905 c 0,0 2.47797,-26.43171 5.45154,-33.70044 2.97357,-7.26872 10.73788,-27.09251 12.72026,-35.51762 1.98238,-8.42511 13.54626,-53.52423 -0.66079,-69.87885 -14.20705,-16.35463 -24.28414,-19.163 -32.70925,-19.65859 -8.42511,-0.4956 -23.62335,-1.98238 -23.62335,-1.98238 l 2.31278,2.47797 c 0,0 -12.38987,-18.6674 -17.67622,-23.29295 -5.28634,-4.62555 -10.57268,-11.39868 -21.47577,-11.23348 -10.90308,0.1652 -21.64097,1.32159 -25.44053,4.46035 -3.79956,3.13877 -1.48678,20.15419 -2.14757,23.12776 -0.6608,2.97356 -1.32159,19.82378 -1.32159,19.82378 -2.33286,-0.59571 -16.0969,6.65638 -16.0969,6.65638 0,0 -13.85658,2.5688 -14.62997,3.42072 -1.65198,2.14757 -9.0859,8.25991 -11.23348,12.72026 -2.14758,4.46035 -6.93833,14.20705 -6.93833,20.48458 0,6.27754 0.1652,18.6674 0.99119,22.96256 0.82599,4.29515 2.31278,12.55506 6.77313,17.67621 4.46035,5.12115 9.91189,6.44273 9.91189,6.44273 0,0 3.63437,17.34582 6.11234,24.61454 2.47797,7.26872 4.46035,12.55506 5.78194,16.02423 1.32158,3.46916 5.12114,10.90308 5.45154,15.19824"
       id="path5079"
       inkscape:connector-curvature="0"
       sodipodi:nodetypes="cssssccsssscccsssscssc" />
    <path
       style="fill:none;stroke:#000000;stroke-width:1px;stroke-linecap:butt;stroke-linejoin:miter;stroke-opacity:1"
       d="m 366.31971,455.70873 c 0,0 -7.46118,-1.20342 -13.71894,0 -6.25776,1.20341 -8.18322,1.68478 -10.83074,1.4441 -2.64751,-0.24069 -6.25776,0.48136 -6.25776,0.48136"
       id="path3773"
       inkscape:connector-curvature="0" />
    <path
       style="fill:none;stroke:#000000;stroke-width:1px;stroke-linecap:butt;stroke-linejoin:miter;stroke-opacity:1"
       d="m 386.05572,452.09848 c 0,0 7.70186,-7.94254 23.58695,-8.42391 15.88509,-0.48136 38.5093,-0.48136 38.5093,-0.48136"
       id="path3777"
       inkscape:connector-curvature="0" />
    <path
       style="fill:#c12d1f;fill-opacity:1;stroke:#000000;stroke-width:1px;stroke-linecap:butt;stroke-linejoin:miter;stroke-opacity:1"
       d="m 470.5355,457.87488 c 0,0 4.81366,6.73912 13.95962,11.55279 9.14596,4.81366 17.32919,7.70186 17.32919,7.70186 l -4.81367,10.34937 c 0,0 -4.81366,-6.49844 -13.95962,-10.59006 -9.14596,-4.09161 -13.71894,-6.73913 -13.71894,-6.73913"
       id="path3788"
       inkscape:connector-curvature="0" />
  </g>
  <g
     inkscape:groupmode="layer"
     id="layer3"
     inkscape:label="Arm"
     style="display:inline"
     transform="translate(-195.71428,-293.79074)">
    <path
       style="fill:#c12d1f;fill-opacity:1;stroke:#000000;stroke-width:1px;stroke-linecap:butt;stroke-linejoin:miter;stroke-opacity:1"
       d="m 226.7235,494.45871 c 0,0 -7.94254,4.09161 -4.81366,9.62732 3.12888,5.53572 16.12577,-6.01707 16.12577,-6.01707 l 3.12888,26.71582 c 0,0 -5.53572,6.01708 -3.12888,8.42391 2.40683,2.40683 11.07142,-3.36956 11.07142,-3.36956"
       id="path3793"
       inkscape:connector-curvature="0" />
    <path
       style="fill:#c12d1f;fill-opacity:1;stroke:#000000;stroke-width:1px;stroke-linecap:butt;stroke-linejoin:miter;stroke-opacity:1"
       d="m 274.53421,483.49478 c 0,0 10.25305,-0.70711 10.25305,2.65165 0,3.35875 -8.30851,3.18198 -8.30851,3.18198 l 2.65165,10.6066 c 0,0 5.48008,-0.35355 5.83363,2.2981 0.35356,2.65165 -5.65685,5.3033 -5.65685,5.3033 z"
       id="path3827"
       inkscape:connector-curvature="0" />
    <path
       style="fill:#c12d1f;fill-opacity:1;stroke:#000000;stroke-width:2;stroke-linecap:butt;stroke-linejoin:miter;stroke-miterlimit:4;stroke-opacity:1;stroke-dasharray:none"
       d="m 310.72191,491.57051 c 0,0 -9.14596,12.51552 -15.6444,18.29192 -6.49845,5.77639 -15.64441,10.34937 -15.64441,10.34937 l -2.88819,7.2205 c 0,0 5.29502,-14.44099 4.57297,-31.52949 -0.72204,-17.0885 -1.44409,-16.60714 -1.44409,-16.60714 l -5.29503,2.64752 c 0,0 15.6444,-6.97981 24.54968,-22.8649 8.90527,-15.88508 0.72204,-33.21427 -6.01708,-28.40061 -6.73913,4.81367 -5.05435,14.92236 -10.10869,15.16304 -5.05435,0.24068 -0.48137,-2.8882 -5.05435,-2.64751 -4.57298,0.24068 -6.49844,7.46117 -9.38664,9.14595 -2.8882,1.68479 -3.85093,-1.68478 -6.49845,-1.20341 -2.64751,0.48136 -4.33229,5.29503 -7.94254,5.29503 -3.61024,0 -4.09161,-6.73913 -7.22049,-6.49845 -3.12888,0.24069 -4.57298,3.85093 -7.46118,0 -2.8882,-3.85093 2.16615,-6.49844 -3.85093,-6.01708 -6.01708,0.48137 -9.14596,4.3323 -8.18322,-5.53571 0.96273,-9.86801 0,-10.59005 -5.7764,-10.59005 -5.77639,0 -6.49844,-5.05435 -5.53571,-13.95963 0.96273,-8.90527 6.49844,-17.81055 -11.07142,-13.71893 -17.56987,4.09161 -17.56987,4.09161 -17.56987,4.09161 l 5.29503,79.42543 c 0,0 8.66459,5.77639 17.81055,6.73913 9.14596,0.96273 15.6444,0.72205 15.6444,0.72205 l -3.61025,-0.96274 c 0,0 0.96274,13.23758 12.51553,30.32608 11.55279,17.0885 20.93943,26.23446 29.12265,25.75309 8.18323,-0.48137 10.34938,-8.66459 24.06832,-18.5326 13.71893,-9.86801 23.82762,-15.16304 23.82762,-15.16304"
       id="path3791"
       inkscape:connector-curvature="0" />
    <path
       style="fill:none;stroke:#000000;stroke-width:1px;stroke-linecap:butt;stroke-linejoin:miter;stroke-opacity:1"
       d="m 243.08995,489.88573 c 0,0 -3.12888,4.3323 -2.64751,5.05435 0.48136,0.72205 5.29503,0.72205 5.29503,0.72205"
       id="path3795"
       inkscape:connector-curvature="0" />
    <path
       style="fill:none;stroke:#000000;stroke-width:1px;stroke-linecap:butt;stroke-linejoin:miter;stroke-opacity:1"
       d="m 250.06976,499.99442 c 0,0 -3.12888,3.36956 -3.12888,4.33229 0,0.96274 4.81366,2.64752 4.81366,2.64752"
       id="path3797"
       inkscape:connector-curvature="0"
       sodipodi:nodetypes="csc" />
    <path
       style="fill:none;stroke:#000000;stroke-width:1px;stroke-linecap:butt;stroke-linejoin:miter;stroke-opacity:1"
       d="m 238.99834,509.14038 c 0,0 -5.05435,1.68478 -3.12888,5.05435 1.92546,3.36956 6.49844,0.96273 6.49844,0.96273"
       id="path3799"
       inkscape:connector-curvature="0"
       sodipodi:nodetypes="csc" />
    <path
       style="fill:none;stroke:#000000;stroke-width:1px;stroke-linecap:butt;stroke-linejoin:miter;stroke-opacity:1"
       d="m 253.43933,518.04566 c 0,0 -4.57298,2.16614 -3.61025,3.61024 0.96273,1.4441 7.94254,1.20342 7.94254,1.20342"
       id="path3801"
       inkscape:connector-curvature="0" />
    <path
       style="fill:none;stroke:#000000;stroke-width:1px;stroke-linecap:butt;stroke-linejoin:miter;stroke-opacity:1"
       d="m 264.99212,486.99753 c 0,0 4.33229,-1.92546 6.25776,1.68478 1.92546,3.61025 -3.85093,5.53572 -3.85093,5.53572"
       id="path3803"
       inkscape:connector-curvature="0" />
    <path
       style="fill:none;stroke:#000000;stroke-width:1px;stroke-linecap:butt;stroke-linejoin:miter;stroke-opacity:1"
       d="m 268.36168,502.40125 c 0,0 3.85093,-0.72205 5.05434,1.92547 1.20342,2.64751 -4.81366,5.77639 -4.81366,5.77639"
       id="path3805"
       inkscape:connector-curvature="0" />
    <path
       style="fill:#c12d1f;fill-opacity:1;stroke:#000000;stroke-width:2;stroke-linecap:butt;stroke-linejoin:miter;stroke-miterlimit:4;stroke-opacity:1;stroke-dasharray:none"
       d="m 499.41747,546.68695 c 0,0 -6.01707,1.68478 -6.01707,4.81366 0,3.12888 5.77639,4.3323 5.77639,4.3323 l -3.12888,4.09161 c 0,0 -6.73913,3.61025 -12.51552,13.23757 -5.7764,9.62732 -7.70186,16.36645 -7.46118,21.66148 0.24069,5.29503 0.24069,5.29503 0.24069,5.29503 l 32.7329,-2.8882 z"
       id="path3807"
       inkscape:connector-curvature="0" />
    <path
       sodipodi:type="arc"
       style="opacity:0.77102805;fill:#d7969a;fill-opacity:1;stroke:none;display:inline"
       id="path3809"
       sodipodi:cx="208.7926"
       sodipodi:cy="479.53635"
       sodipodi:rx="3.008539"
       sodipodi:ry="4.8136625"
       d="m 211.80114,479.53635 c 0,2.65851 -1.34697,4.81366 -3.00854,4.81366 -1.66157,0 -3.00854,-2.15515 -3.00854,-4.81366 0,-2.65852 1.34697,-4.81367 3.00854,-4.81367 1.66157,0 3.00854,2.15515 3.00854,4.81367 z"
       transform="matrix(0.70514169,-0.70906642,0.70906642,0.70514169,-274.45889,289.4431)" />
    <path
       transform="matrix(1.5925364,-1.7305933,1.6014004,1.7210144,-898.23314,0.41942169)"
       d="m 211.80114,479.53635 c 0,2.65851 -1.34697,4.81366 -3.00854,4.81366 -1.66157,0 -3.00854,-2.15515 -3.00854,-4.81366 0,-2.65852 1.34697,-4.81367 3.00854,-4.81367 1.66157,0 3.00854,2.15515 3.00854,4.81367 z"
       sodipodi:ry="4.8136625"
       sodipodi:rx="3.008539"
       sodipodi:cy="479.53635"
       sodipodi:cx="208.7926"
       id="path3813"
       style="opacity:0.77102805;fill:#d7969a;fill-opacity:1;stroke:none;display:inline"
       sodipodi:type="arc" />
    <path
       transform="matrix(0.70514169,-0.70906642,0.70906642,0.70514169,-267.47908,281.74124)"
       d="m 211.80114,479.53635 c 0,2.65851 -1.34697,4.81366 -3.00854,4.81366 -1.66157,0 -3.00854,-2.15515 -3.00854,-4.81366 0,-2.65852 1.34697,-4.81367 3.00854,-4.81367 1.66157,0 3.00854,2.15515 3.00854,4.81367 z"
       sodipodi:ry="4.8136625"
       sodipodi:rx="3.008539"
       sodipodi:cy="479.53635"
       sodipodi:cx="208.7926"
       id="path3815"
       style="opacity:0.77102805;fill:#d7969a;fill-opacity:1;stroke:none;display:inline"
       sodipodi:type="arc" />
  </g>
  <g
     inkscape:groupmode="layer"
     id="layer6"
     inkscape:label="Face"
     transform="translate(-195.71428,-293.79074)">
    <path
       style="fill:#d9b47d;fill-opacity:1;stroke:#000000;stroke-width:1px;stroke-linecap:butt;stroke-linejoin:miter;stroke-opacity:1"
       d="m 373.66238,390.49762 c 0,0 -1.92858,6.9911 0.84376,11.93309 2.77233,4.94199 3.61608,11.08933 8.91968,8.55807 5.30359,-2.53126 -1.20536,-7.23217 -1.20536,-10.24558 0,-3.0134 -0.48215,-9.16075 -0.48215,-9.16075 z"
       id="path5082"
       inkscape:connector-curvature="0" />
    <path
       style="fill:#c12d1f;fill-opacity:1;stroke:#000000;stroke-width:1px;stroke-linecap:butt;stroke-linejoin:miter;stroke-opacity:1"
       d="m 370.76951,393.26995 15.18757,-0.3616 -3.9777,-0.36161 c 0,0 0.72322,-7.35271 -5.06252,-7.23218 -5.78574,0.12054 -4.21877,7.47325 -4.21877,7.47325 z"
       id="path5084"
       inkscape:connector-curvature="0" />
    <path
       sodipodi:type="arc"
       style="fill:#000000;fill-opacity:1;stroke:none"
       id="path5086"
       sodipodi:cx="377.9187"
       sodipodi:cy="399.69812"
       sodipodi:rx="1.9603361"
       sodipodi:ry="3.1962001"
       d="m 379.87904,399.69812 c 0,1.76521 -0.87768,3.1962 -1.96034,3.1962 -1.08266,0 -1.96033,-1.43099 -1.96033,-3.1962 0,-1.76521 0.87767,-3.1962 1.96033,-3.1962 1.08266,0 1.96034,1.43099 1.96034,3.1962 z" />
    <path
       inkscape:connector-curvature="0"
       id="path5088"
       d="m 356.10459,396.46386 c 0,0 -1.92858,6.9911 0.84376,11.93309 2.77233,4.94199 3.61608,11.08933 8.91968,8.55807 5.30359,-2.53126 -1.20536,-7.23217 -1.20536,-10.24558 0,-3.0134 -0.48215,-9.16075 -0.48215,-9.16075 z"
       style="fill:#d9b47d;fill-opacity:1;stroke:#000000;stroke-width:1px;stroke-linecap:butt;stroke-linejoin:miter;stroke-opacity:1" />
    <path
       inkscape:connector-curvature="0"
       id="path5090"
       d="m 353.21172,399.23619 15.18757,-0.3616 -3.9777,-0.36161 c 0,0 0.72322,-7.35271 -5.06252,-7.23218 -5.78574,0.12054 -4.21877,7.47325 -4.21877,7.47325 z"
       style="fill:#c12d1f;fill-opacity:1;stroke:#000000;stroke-width:1px;stroke-linecap:butt;stroke-linejoin:miter;stroke-opacity:1" />
    <path
       d="m 379.87904,399.69812 c 0,1.76521 -0.87768,3.1962 -1.96034,3.1962 -1.08266,0 -1.96033,-1.43099 -1.96033,-3.1962 0,-1.76521 0.87767,-3.1962 1.96033,-3.1962 1.08266,0 1.96034,1.43099 1.96034,3.1962 z"
       sodipodi:ry="3.1962001"
       sodipodi:rx="1.9603361"
       sodipodi:cy="399.69812"
       sodipodi:cx="377.9187"
       id="path5092"
       style="fill:#000000;fill-opacity:1;stroke:none"
       sodipodi:type="arc"
       transform="matrix(0.87722354,0,0,0.88704566,27.878994,49.308754)" />
    <path
       style="fill:#c12d1f;fill-opacity:1;stroke:#000000;stroke-width:1px;stroke-linecap:butt;stroke-linejoin:miter;stroke-opacity:1"
       d="m 372.80477,412.35508 c 0,0 -6.64809,-3.49451 -12.2734,-3.23881 -5.62532,0.25569 -10.99493,2.89789 -10.99493,2.89789 l 5.54008,1.70464 c 0,0 -5.45485,0.0852 -8.26751,1.78987 -2.81265,1.70464 -4.77299,5.45485 -4.77299,5.45485 l 7.15949,-0.42616 c 0,0 -5.96624,4.0059 -7.58565,6.64809 -1.61941,2.64219 -1.70464,6.56287 -1.70464,6.56287 0,0 8.86413,-6.98903 17.21687,-8.94936 8.35273,-1.96034 11.59155,-1.53418 11.59155,-1.53418"
       id="path5094"
       inkscape:connector-curvature="0" />
    <path
       style="fill:#000000;stroke:#000000;stroke-width:1px;stroke-linecap:butt;stroke-linejoin:miter;stroke-opacity:1"
       d="m 374.93557,440.39641 0.68186,-9.46075 2.3865,-3.32405 17.13163,-6.3924 c 0,0 1.44894,-3.83544 6.47763,-1.10801 5.02869,2.72742 6.22194,9.88691 -2.1308,12.87003 -8.35274,2.98312 -8.94936,4.17637 -14.06328,4.85822 -5.11392,0.68186 -10.48354,2.55696 -10.48354,2.55696 z"
       id="path5100"
       inkscape:connector-curvature="0" />
    <path
       style="fill:#ffffff;stroke:none"
       d="m 397.86298,419.5998 c 0,0 1.36372,7.84135 -2.72742,8.09704 -4.09114,0.2557 -5.88101,-1.19324 -5.88101,-1.19324 0,0 0.51139,2.89788 -3.15358,3.57974 -3.66498,0.68186 -6.81856,-0.2557 -6.81856,-0.2557 0,0 1.02278,2.47173 -3.40928,3.15359 -4.43207,0.68185 -5.96624,0.17046 -5.96624,-1.53418 0,-1.70464 0.93755,-2.64219 5.71054,-4.68776 4.77299,-2.04557 17.55779,-9.03459 19.68859,-7.75611 2.1308,1.27848 2.55696,0.59662 2.55696,0.59662 z"
       id="path5102"
       inkscape:connector-curvature="0" />
    <path
       style="fill:none;stroke:#000000;stroke-width:1px;stroke-linecap:butt;stroke-linejoin:miter;stroke-opacity:1"
       d="m 366.83853,423.00908 -4.51729,6.13671 c 0,0 4.34683,1.53417 15.59745,-3.57975 11.25063,-5.11392 14.14852,-7.32995 19.26244,-6.81856 5.11392,0.5114 6.47763,3.92068 6.47763,3.92068"
       id="path5104"
       inkscape:connector-curvature="0" />
    <path
       style="fill:url(#linearGradient5114);fill-opacity:1;stroke:#000000;stroke-width:1px;stroke-linecap:butt;stroke-linejoin:miter;stroke-opacity:1"
       d="m 381.49844,438.60654 c 0,0 -4.94346,1.70464 -9.03459,1.53418 -4.09114,-0.17047 -9.11983,2.72742 -1.10802,3.32404 8.01181,0.59663 16.02362,-2.98312 16.02362,-2.98312"
       id="path5106"
       inkscape:connector-curvature="0"
       sodipodi:nodetypes="cssc" />
  </g>
  <g
     inkscape:groupmode="layer"
     id="layer7"
     inkscape:label="Indents"
     transform="translate(-195.71428,-293.79074)">
    <path
       style="fill:none;stroke:#000000;stroke-width:1px;stroke-linecap:butt;stroke-linejoin:miter;stroke-opacity:1"
       d="m 319.62718,538.02235 c 0,0 0.48137,7.94255 27.91925,-5.77639 27.43787,-13.71894 62.57761,-6.49844 82.31362,-8.18323 19.73602,-1.68478 36.34315,-12.03415 36.34315,-12.03415"
       id="path3818"
       inkscape:connector-curvature="0" />
    <path
       style="fill:none;stroke:#000000;stroke-width:1px;stroke-linecap:butt;stroke-linejoin:miter;stroke-opacity:1"
       d="m 441.41284,541.15124 c 0,0 -6.73912,9.62732 -47.17389,13.95962 -40.43476,4.33229 -46.45184,0.24068 -46.45184,0.24068"
       id="path3820"
       inkscape:connector-curvature="0" />
    <path
       style="fill:none;stroke:#000000;stroke-width:1px;stroke-linecap:butt;stroke-linejoin:miter;stroke-opacity:1"
       d="m 439.48738,567.62638 c 0,0 -25.27173,9.14596 -38.74998,11.55279 -13.47826,2.40683 -41.3975,1.20341 -41.3975,1.20341"
       id="path3822"
       inkscape:connector-curvature="0" />
    <path
       style="fill:#ffffff"
       d="m -67.247592,116.03416 0,-216.000004 222.500002,0 222.5,0 0,216.000004 0,216 -222.5,0 -222.500002,0 0,-216 z M 256.29395,309.53163 c 6.57715,-0.82639 13.36124,-1.73558 15.07575,-2.02042 l 3.11728,-0.51788 0.53777,-9.72959 c 0.72935,-13.19592 3.40505,-20.95899 19.55303,-56.72958 2.23458,-4.95 5.46548,-13.87021 7.17977,-19.82269 3.51523,-12.20584 9.99486,-39.82788 9.99486,-42.60715 0,-2.30856 -17.7578,-26.77231 -22.37842,-30.82926 -7.32126,-6.42816 -34.35688,-13.32947 -54.42216,-13.8922 l -12.30057,-0.34497 -5.80173,-7.30085 c -3.19094,-4.01547 -7.58635,-8.71431 -9.76757,-10.44187 -3.9369,-3.11809 -3.96276,-3.18372 -3.54267,-8.9914 0.32717,-4.52306 0.059,-6.1526 -1.18185,-7.182444 -1.24937,-1.03688 -1.60503,-3.26902 -1.60503,-10.07312 0,-18.87903 -4.53845,-29.76826 -17.92754,-43.01405 -8.58465,-8.49277 -22.50292,-18.90287 -23.68827,-17.71752 -0.34514,0.34513 4.7628,5.93526 11.35097,12.42252 18.36808,18.08672 24.10037,28.72659 25.021,46.44215 0.40904,7.87124 0.2015,10.07521 -1.12742,11.9725 -0.89581,1.278954 -1.62874,3.800234 -1.62874,5.602864 0,2.82932 -0.34185,3.27749 -2.5,3.27749 -1.97745,0 -2.5,-0.50545 -2.5,-2.41821 0,-1.33002 -0.27314,-3.13002 -0.60699,-4 -0.43514,-1.13395 -0.0104,-1.58179 1.5,-1.58179 1.15885,0 2.10699,-0.450004 2.10699,-1.000004 0,-0.55 -0.80694,-1 -1.7932,-1 -1.16017,0 -2.13097,-1.14731 -2.75,-3.25 -0.87305,-2.96553 -1.30691,-3.25 -4.9568,-3.25 -3.64989,0 -4.08375,0.28447 -4.9568,3.25 -0.91522,3.10877 -2.5432,4.47546 -2.5432,2.135 0,-0.61325 -2.228,-5.73411 -4.95111,-11.37969 -5.494,-11.39019 -10.57229,-16.82078 -20.36767,-21.78063 -5.36373,-2.71591 -27.64207,-9.09717 -28.55899,-8.18025 -0.92091,0.92091 1.37979,2.16123 6.37777,3.43831 10.55708,2.69752 18.58794,7.43103 26.61296,15.68608 6.72811,6.92097 13.88704,17.90274 13.88704,21.30266 0,0.56569 -1.26,1.02852 -2.8,1.02852 -3.3723,0 -5.2,1.62267 -5.2,4.616674 0,1.21916 -0.5625,2.4449 -1.25,2.72387 -0.88812,0.36036 -0.93207,0.74637 -0.15182,1.33333 0.604,0.45437 1.38623,2.67244 1.7383,4.92904 0.63587,4.07574 0.61205,4.11437 -3.59818,5.83439 -3.72007,1.51977 -3.99375,1.83484 -2.2383,2.57681 1.94235,0.82095 1.93813,0.84735 -0.14641,0.9156 -1.18052,0.0387 -3.63232,1.75779 -5.44844,3.82029 l -3.30203,3.75 2.74335,0.32076 2.74334,0.32075 -2.43253,1.91343 c -1.33789,1.05239 -2.72946,3.15805 -3.09239,4.67924 -0.36293,1.5212 -0.89382,3.55332 -1.17977,4.51582 -0.7407,2.49323 0.88309,2.17459 5.81475,-1.14106 2.36507,-1.59008 5.98763,-3.59211 8.05013,-4.44897 l 3.75,-1.55792 0,4.32398 c 0,8.66709 -0.76696,10.2488 -5.62977,11.6103 -6.01668,1.68457 -19.59076,11.34549 -28.60145,20.35618 -8.31666,8.31666 -13.07734,16.84214 -15.28606,27.37446 -1.09005,5.19793 -2.21479,7.30649 -6.59352,12.36093 -4.40247,5.08184 -18.610172,16.48446 -19.469262,15.62537 -0.72517,-0.72517 1.79365,-10.3318 3.08232,-11.75576 1.92213,-2.12393 1.92102,-4.89785 -0.002,-5.63588 -2.06098,-0.79088 -2.06098,-9.65117 0,-11.36163 2.12903,-1.76694 1.85769,-4.7517 -0.5,-5.5 -2.82321,-0.89605 -2.48302,-3.90353 0.63,-5.56957 4.17441,-2.23408 13.936432,-13.50922 16.639972,-19.21919 4.52522,-9.55742 4.65236,-19.55124 0.33059,-25.98774 -4.52826,-6.74405 -11.331482,-3.9349 -14.969092,6.18097 -1.93004,5.36724 -2.53138,5.79949 -5.49411,3.94924 -2.98013,-1.86112 -6.89681,-0.17432 -9.80731,4.22373 -2.5107,3.79393 -2.89796,4.00241 -6.351,3.41902 -3.02589,-0.51122 -4.2167,-0.16737 -6.72252,1.94113 -3.88444,3.26855 -4.43534,3.22259 -6.6675,-0.55616 -1.71949,-2.91087 -2.12717,-3.07952 -6.12094,-2.53211 -4.52923,0.6208 -5.46809,-0.16127 -5.46809,-4.55494 0,-1.86446 -0.47954,-2.00227 -5.5142,-1.58476 l -5.5142,0.45728 0.18467,-7.15311 c 0.21001,-8.14443 -0.31538,-9.51379 -3.650447,-9.51379 -1.306736,0 -3.590449,-0.46178 -5.074918,-1.02617 l -2.699034,-1.02617 0.706425,-12.39985 c 0.692617,-12.1575 0.662712,-12.42325 -1.530101,-13.5968 -2.741297,-1.4671 -9.144137,-0.85235 -21.737469,2.08706 l -9.329015,2.17749 0.568047,4.64222 c 0.312425,2.55322 1.491002,19.49222 2.619058,37.64222 1.128057,18.15 2.285208,34.49888 2.571447,36.33084 0.460207,2.94538 1.249149,3.67185 6.817358,6.27753 4.194653,1.96291 9.061688,3.26201 14.578216,3.89118 4.554711,0.51948 8.468015,1.13123 8.696232,1.35945 0.587915,0.58791 0.475187,3.59791 -0.277143,7.40016 -0.720422,3.64098 0.778817,6.24084 3.598851,6.24084 1.02062,0 2.017523,0.98962 2.356193,2.33897 0.32287,1.28643 2.83386,5.78074 5.57997,9.98736 4.02725,6.16914 4.95007,8.37612 4.77136,11.41103 -0.21284,3.61462 -0.0935,3.76495 3.03435,3.82124 2.55822,0.046 4.32895,1.15442 8.26345,5.17243 5.7951,5.9181 12.19062,8.82736 17.2988,7.86906 2.3649,-0.44366 6.11856,-3.11903 12.29313,-8.76178 4.88879,-4.46771 13.42345,-11.16692 18.965912,-14.88714 l 10.07719,-6.76402 2.19686,7.46711 c 1.80639,6.13988 3.00875,8.25617 6.76458,11.90643 2.51225,2.44162 5.32338,4.43931 6.24696,4.43931 1.31812,0 2.24772,2.43795 4.32269,11.33654 1.4539,6.2351 5.45958,18.86956 8.90151,28.07659 l 6.25805,16.74005 44.39195,-0.24742 44.39194,-0.24742 4.17083,4.17083 c 2.29396,2.29396 4.42114,4.17083 4.72707,4.17083 0.30593,0 5.93755,-0.67614 12.51471,-1.50253 l 0,0 z m 44.95846,-3.59191 c 7.15,-0.60707 13.16299,-1.25966 13.3622,-1.45019 0.48622,-0.46506 -9.11919,-51.25316 -9.94655,-52.59186 -0.8688,-1.40574 -6.51505,1.51944 -7.8893,4.08725 -0.81741,1.52735 -0.54394,2.49854 1.31063,4.65461 l 2.34356,2.72455 -6.15066,6.08504 c -9.61357,9.511 -15.52988,22.13891 -15.52988,33.14733 l 0,5.62539 4.75,-0.58918 c 2.6125,-0.32404 10.6,-1.08586 17.75,-1.69294 z"
       id="path3089"
       inkscape:connector-curvature="0"
       transform="translate(195.71428,293.79074)" />
    <path
       style="fill:#ffffff"
       d="m -67.247592,116.03416 0,-216.000004 222.500002,0 222.5,0 0,216.000004 0,216 -222.5,0 -222.500002,0 0,-216 z m 328.187242,193.35714 13.68723,-1.67144 0.5783,-6.59285 c 1.38203,-15.75559 4.81572,-26.69262 16.82554,-53.59285 6.66514,-14.92892 9.41096,-23.16625 14.26415,-42.79173 5.35243,-21.64432 6.09362,-26.63003 4.43279,-29.81805 -1.91809,-3.68185 -15.43818,-21.94049 -19.31457,-26.08396 -7.26673,-7.76744 -30.82754,-14.36853 -55.31967,-15.49907 l -13.15898,-0.6074 -3.55937,-4.66735 c -1.95765,-2.56704 -6.2736,-7.32981 -9.59101,-10.58393 l -6.03165,-5.91659 0,-6.06596 c 0,-3.33628 -0.40651,-6.493464 -0.90336,-7.015964 -0.49685,-0.5225 -1.3643,-6.59701 -1.92767,-13.49892 -1.10914,-13.58811 -2.91223,-19.75916 -8.16519,-27.94519 -5.92488,-9.23313 -29.71558,-29.93529 -33.10352,-28.80598 -0.73273,0.24425 3.74134,5.775 10.66891,13.18869 19.38174,20.74179 23.30974,28.02276 24.18781,44.83463 0.29743,5.69473 0.0723,10.8737 -0.54329,12.5 -0.57812,1.527224 -1.32127,4.014274 -1.65146,5.526774 -0.76517,3.50506 -3.32017,3.56262 -4.19064,0.0944 -0.49098,-1.95622 -0.1823,-3.00966 1.17208,-4 1.73659,-1.269834 1.74246,-1.414704 0.10582,-2.611444 -0.95302,-0.69687 -2.28982,-2.38437 -2.97066,-3.75 -1.00562,-2.01708 -1.98037,-2.48297 -5.19489,-2.48297 -3.37821,0 -4.15986,0.42328 -5.34398,2.89385 l -1.38698,2.89385 -2.81127,-6.58994 c -6.01408,-14.09766 -12.46249,-21.7818 -22.44171,-26.74228 -5.6384,-2.80275 -25.02136,-8.95547 -28.21246,-8.95547 -3.65448,0 0.0496,2.73322 6.79334,5.01273 9.49624,3.20993 16.05907,7.0723 22.73629,13.38085 5.4781,5.17563 15.18283,18.70194 15.18283,21.1616 0,0.7632 -1.39572,1.7493 -3.10161,2.19134 -4.07274,1.05536 -6.45364,7.053984 -4.71426,11.877504 1.47014,4.07688 0.55,6.2241 -3.2322,7.54258 -1.79359,0.62525 -2.87387,1.59443 -2.59302,2.32632 0.26478,0.69002 -0.64563,1.85775 -2.02313,2.59497 -1.37751,0.73722 -3.39723,2.59403 -4.48826,4.12625 l -1.98371,2.78586 2.60705,0 2.60705,0 -2.06306,2.21443 c -2.32655,2.49726 -4.71045,9.4233 -3.61909,10.51467 0.39392,0.39391 4.31982,-1.23018 8.72424,-3.6091 4.40442,-2.37892 8.19817,-4.13517 8.43055,-3.90278 0.23239,0.23239 0.0911,3.0522 -0.31401,6.26624 l -0.73654,5.84373 -7.17364,3.6393 c -8.20391,4.16197 -19.66362,12.68382 -26.51666,19.71873 -6.39431,6.564 -11.3221,15.11435 -14.26326,24.74854 -3.07695,10.07903 -6.53924,14.81728 -16.880832,23.102 -9.0234,7.2287 -9.99722,6.98928 -6.7134,-1.65058 2.24132,-5.89702 2.5937,-8.88518 1.04779,-8.88518 -1.30484,0 -1.30484,-9.69356 0,-10.5 1.54892,-0.95729 1.17939,-5.49393 -0.5,-6.13837 -0.825,-0.31659 -1.5,-1.01375 -1.5,-1.54926 0,-0.53551 3.35465,-4.32831 7.45478,-8.42844 11.296432,-11.29643 16.250862,-23.47856 14.135182,-34.75611 -0.89004,-4.74429 -5.07195,-9.62782 -8.2446,-9.62782 -4.108202,0 -6.210062,1.789 -9.304922,7.91989 l -2.95034,5.84459 -4.37246,-0.49284 c -4.12766,-0.46525 -4.56944,-0.2627 -7.89098,3.61776 -2.99407,3.49791 -4.10043,4.11391 -7.42259,4.13284 -2.32698,0.0132 -4.91397,0.81219 -6.40407,1.97776 -3.30478,2.58503 -4.39768,2.49396 -6,-0.5 -1.13618,-2.12297 -2.04768,-2.5 -6.04398,-2.5 -4.42891,0 -4.74135,-0.17665 -5.30602,-3 -0.57559,-2.87794 -0.81462,-3.0001 -5.875,-3.00247 l -5.275,-0.002 0,-7.07925 c 0,-8.0154 -0.87853,-9.241 -7.367932,-10.2787 l -3.826101,-0.61182 0.486071,-12.61769 c 0.38819,-10.07684 0.206355,-12.79482 -0.902983,-13.49733 -2.081163,-1.31794 -8.440766,-1.09126 -17.389055,0.61981 -13.208134,2.52562 -15.353677,3.27771 -14.926665,5.23238 0.208769,0.95565 1.563307,19.06254 3.010085,40.23754 1.606053,23.50616 3.075661,39.04978 3.773542,39.91169 1.938828,2.39452 10.774604,5.76565 18.643038,7.11292 10.435402,1.78679 10.420183,1.77421 10.114785,8.36712 -0.236447,5.10443 -0.04653,5.68372 2.135306,6.51325 3.121249,1.1867 12.988809,18.16251 13.715119,23.59502 0.46069,3.44577 0.9105,4.04333 3.24639,4.31272 1.49138,0.17199 4.86638,2.24904 7.5,4.61566 8.66108,7.783 16.10349,10.3465 21.56005,7.42624 1.17709,-0.62996 6.5781,-4.87779 12.00224,-9.43963 5.42414,-4.56183 13.50333,-10.78539 17.953752,-13.83014 l 8.09167,-5.53589 2.47201,7.46952 c 2.39711,7.2432 6.4106,12.3619 12.53082,15.98152 1.06386,0.62918 2.97722,5.6352 5.15988,13.5 3.24698,11.69988 6.02412,19.98733 12.129,36.19496 l 2.52177,6.69496 43.89883,-0.60437 43.89883,-0.60438 4.51243,4.15942 c 2.50473,2.30877 5.52346,4.16577 6.78478,4.1737 1.24979,0.008 8.4316,-0.73786 15.95958,-1.65715 l 0,-4.7e-4 z m 53.62435,-4.8354 c 0.52806,-0.52806 -3.23679,-22.58863 -7.17047,-42.01623 -2.49539,-12.32417 -3.39201,-13.26889 -8.50777,-8.96426 -3.62584,3.05094 -3.7866,4.05078 -1.19382,7.42483 l 1.89505,2.46608 -6.32201,6.70166 c -3.99059,4.23024 -7.74007,9.57001 -10.16729,14.47964 -3.32218,6.71989 -3.8922,8.88209 -4.19018,15.89426 l -0.34489,8.11628 17.74424,-1.79468 c 9.75933,-0.98707 17.97505,-2.02548 18.25714,-2.30758 l 0,0 z"
       id="path3091"
       inkscape:connector-curvature="0"
       transform="translate(195.71428,293.79074)" />
    <path
       style="fill:#ffffff"
       d="m -67.247592,116.03416 0,-216.000004 222.500002,0 222.5,0 0,216.000004 0,216 -222.5,0 -222.500002,0 0,-216 z m 329.500002,193.1833 12,-1.6833 0.76465,-6 c 2.42756,-19.04848 4.06776,-24.27554 16.94462,-54 3.57397,-8.25 7.44502,-17.925 8.60234,-21.5 3.6971,-11.42042 11.18839,-43.20029 11.18839,-47.46386 0,-3.65272 -16.22265,-26.17992 -22.89818,-31.79701 -8.1528,-6.86013 -37.62167,-13.73913 -58.85692,-13.73913 l -6.83393,0 -3.64498,-4.75 c -2.00474,-2.6125 -6.37221,-7.43591 -9.70549,-10.7187 l -6.0605,-5.96869 0,-6.08131 c 0,-3.34471 -0.42071,-6.508804 -0.93492,-7.031304 -0.5142,-0.5225 -1.38021,-6.35 -1.92446,-12.95 -0.54425,-6.6 -1.70251,-14.31717 -2.57391,-17.14926 -2.22372,-7.22722 -8.31592,-15.90835 -16.85913,-24.02357 -12.25733,-11.64327 -26.43975,-20.72127 -20.14061,-12.89178 1.06317,1.32146 6.92074,7.81641 13.01684,14.43323 15.70305,17.04438 20.41619,26.95665 20.41619,42.93757 0,12.630534 -4.63259,23.490184 -6.62841,15.538224 -0.47869,-1.90729 -0.18693,-3.00627 1.03542,-3.90007 1.57681,-1.152994 1.53251,-1.428634 -0.60254,-3.749214 -1.26746,-1.3776 -2.88471,-3.22257 -3.5939,-4.09993 -1.34348,-1.66207 -4.91315,-2.09703 -6.81087,-0.82989 -0.60516,0.40408 -1.6683,1.81222 -2.36252,3.1292 -1.21943,2.31333 -1.36515,2.16075 -4.29755,-4.5 -5.83468,-13.2531 -11.56462,-20.43114 -20.23963,-25.35473 -5.04321,-2.86232 -20.70812,-8.24924 -27.87846,-9.58698 -6.60472,-1.2322 -3.84503,1.5296 4.45626,4.45967 9.67971,3.41662 16.14144,7.24748 22.73937,13.48111 5.40438,5.10598 15.18283,18.69045 15.18283,21.09237 0,0.72512 -1.33148,1.78256 -2.95885,2.34986 -3.9349,1.37171 -6.37666,6.903314 -4.90754,11.117624 1.4534,4.16923 0.81607,6.12832 -2.63361,8.09542 -1.65,0.94088 -2.91913,2.11989 -2.8203,2.62002 0.0988,0.50014 -1.02616,1.72414 -2.5,2.72 -1.47383,0.99586 -3.48821,2.89076 -4.47638,4.21089 -1.78228,2.38098 -1.77555,2.40024 0.83889,2.40024 l 2.63558,0 -2.50418,2.97605 c -2.51583,2.98989 -4.39373,8.63716 -3.25185,9.77904 0.33664,0.33665 4.23285,-1.31714 8.65824,-3.67509 4.42539,-2.35795 8.23672,-4.09662 8.46962,-3.86372 0.2329,0.23291 0.092,3.04161 -0.31308,6.24156 l -0.73654,5.8181 -7.47264,3.90998 c -9.38491,4.91055 -16.69569,10.36795 -25.12091,18.75242 -7.87665,7.83855 -12.04912,14.7808 -15.36324,25.56166 -3.08057,10.02114 -6.56025,14.77046 -16.877602,23.03576 -9.0234,7.2287 -9.99722,6.98928 -6.7134,-1.65058 2.24132,-5.89702 2.5937,-8.88518 1.04779,-8.88518 -1.30484,0 -1.30484,-9.69356 0,-10.5 1.54892,-0.95729 1.17939,-5.49393 -0.5,-6.13837 -2.56662,-0.98491 -1.66447,-2.64916 5.03994,-9.29754 10.798232,-10.70796 15.460062,-19.80179 15.460062,-30.15792 0,-8.50599 -3.93912,-14.90617 -9.174312,-14.90617 -3.46322,0 -5.98997,2.41727 -9.24859,8.84785 l -2.49121,4.91616 -4.37035,-0.49261 c -4.12514,-0.46496 -4.56778,-0.26195 -7.88888,3.618 -2.78852,3.25777 -4.19652,4.1106 -6.78643,4.1106 -1.79736,0 -5.00459,0.97606 -7.12719,2.16903 l -3.85928,2.16904 -2.09946,-2.66904 c -1.69367,-2.15316 -2.93104,-2.66903 -6.40188,-2.66903 -3.98047,0 -4.34732,-0.22449 -4.90242,-3 -0.57707,-2.88534 -0.80475,-3 -5.95727,-3 l -5.35728,0 0.42003,-5.25 c 0.63659,-7.95708 -0.66751,-10.28952 -6.540799,-11.6985 l -4.923244,-1.18107 0.490849,-11.9182 c 0.558848,-13.56924 0.03811,-14.94701 -5.654731,-14.9614 -6.646049,-0.0168 -26.245475,4.15289 -26.8433,5.7108 -0.738488,1.92447 4.652552,77.00196 5.733355,79.84469 1.175766,3.0925 8.32623,6.27046 19.053874,8.46833 5.033285,1.03121 9.407984,2.13148 9.721552,2.44505 0.313568,0.31357 0.455845,3.03717 0.316171,6.05245 -0.230465,4.97529 -0.03247,5.56653 2.140884,6.39283 3.121249,1.1867 12.988809,18.16251 13.715119,23.59502 0.45551,3.40704 0.92366,4.04509 3.15805,4.30419 1.44279,0.16731 5.04279,2.37402 8,4.9038 6.16917,5.27751 12.04259,8.23841 16.40496,8.27005 3.40968,0.0247 5.43184,-1.29066 18.64482,-12.12818 5.12983,-4.20758 12.67404,-9.94815 16.764912,-12.75681 l 7.43794,-5.10667 1.64068,5.25681 c 2.87428,9.20934 6.74635,14.59132 12.69947,17.65163 1.3895,0.7143 2.6132,2.718 3.28088,5.37219 1.7575,6.98639 10.8797,35.23902 14.10546,43.68642 l 3.01083,7.88457 43.86376,-0.57409 43.86375,-0.57409 4.72043,4.15509 c 5.49035,4.8328 5.88303,4.87116 23.93885,2.33839 l 0,0 z m 52.2994,-4.64937 c 0.50706,-0.50706 -1.13281,-10.63169 -4.94553,-30.53393 -4.86814,-25.41153 -4.85779,-25.39192 -10.77714,-20.41111 -3.56508,2.99982 -3.72293,4.01241 -1.14785,7.36308 l 1.88441,2.45196 -6.28012,6.78311 c -3.81974,4.12568 -7.77543,9.80939 -10.09692,14.50771 -3.24381,6.56496 -3.88077,8.94357 -4.24298,15.84449 l -0.42618,8.11989 17.81449,-1.86093 c 9.79797,-1.02351 17.99599,-2.04243 18.21782,-2.26427 z"
       id="path3093"
       inkscape:connector-curvature="0"
       transform="translate(195.71428,293.79074)" />
  </g>
</svg>
